<mxfile host="app.diagrams.net" agent="Mozilla/5.0 (Windows NT 10.0; Win64; x64) AppleWebKit/537.36 (KHTML, like Gecko) Chrome/135.0.0.0 Safari/537.36 OPR/120.0.0.0" version="27.1.1">
  <diagram name="Page-1" id="2VoOAOHu074U5PVVE-Vt">
    <mxGraphModel dx="1031" dy="564" grid="1" gridSize="10" guides="1" tooltips="1" connect="1" arrows="1" fold="1" page="1" pageScale="1" pageWidth="850" pageHeight="1100" math="0" shadow="0">
      <root>
        <mxCell id="0" />
        <mxCell id="1" parent="0" />
        <mxCell id="2" value="ContaCorrente" style="swimlane;fontStyle=1;align=center;verticalAlign=top;childLayout=stackLayout;horizontal=1;startSize=29.818181818181817;horizontalStack=0;resizeParent=1;resizeParentMax=0;resizeLast=0;collapsible=0;marginBottom=0;" parent="1" vertex="1">
          <mxGeometry x="130" y="350" width="529" height="337.8181818181818" as="geometry" />
        </mxCell>
        <mxCell id="3" value="- numero: String" style="text;strokeColor=none;fillColor=none;align=left;verticalAlign=top;spacingLeft=4;spacingRight=4;overflow=hidden;rotatable=0;points=[[0,0.5],[1,0.5]];portConstraint=eastwest;" parent="2" vertex="1">
          <mxGeometry y="29.818181818181817" width="529" height="30" as="geometry" />
        </mxCell>
        <mxCell id="4" value="- saldo: Double" style="text;strokeColor=none;fillColor=none;align=left;verticalAlign=top;spacingLeft=4;spacingRight=4;overflow=hidden;rotatable=0;points=[[0,0.5],[1,0.5]];portConstraint=eastwest;" parent="2" vertex="1">
          <mxGeometry y="59.81818181818181" width="529" height="30" as="geometry" />
        </mxCell>
        <mxCell id="5" value="- statusEspecial: Boolean" style="text;strokeColor=none;fillColor=none;align=left;verticalAlign=top;spacingLeft=4;spacingRight=4;overflow=hidden;rotatable=0;points=[[0,0.5],[1,0.5]];portConstraint=eastwest;" parent="2" vertex="1">
          <mxGeometry y="89.81818181818181" width="529" height="30" as="geometry" />
        </mxCell>
        <mxCell id="6" value="- limite: Double" style="text;strokeColor=none;fillColor=none;align=left;verticalAlign=top;spacingLeft=4;spacingRight=4;overflow=hidden;rotatable=0;points=[[0,0.5],[1,0.5]];portConstraint=eastwest;" parent="2" vertex="1">
          <mxGeometry y="119.81818181818181" width="529" height="30" as="geometry" />
        </mxCell>
        <mxCell id="7" value="- movimentacoes: List" style="text;strokeColor=none;fillColor=none;align=left;verticalAlign=top;spacingLeft=4;spacingRight=4;overflow=hidden;rotatable=0;points=[[0,0.5],[1,0.5]];portConstraint=eastwest;" parent="2" vertex="1">
          <mxGeometry y="149.8181818181818" width="529" height="30" as="geometry" />
        </mxCell>
        <mxCell id="8" style="line;strokeWidth=1;fillColor=none;align=left;verticalAlign=middle;spacingTop=-1;spacingLeft=3;spacingRight=3;rotatable=0;labelPosition=right;points=[];portConstraint=eastwest;strokeColor=inherit;" parent="2" vertex="1">
          <mxGeometry y="179.8181818181818" width="529" height="8" as="geometry" />
        </mxCell>
        <mxCell id="9" value="+ sacar(valor: Double) : : Boolean" style="text;strokeColor=none;fillColor=none;align=left;verticalAlign=top;spacingLeft=4;spacingRight=4;overflow=hidden;rotatable=0;points=[[0,0.5],[1,0.5]];portConstraint=eastwest;" parent="2" vertex="1">
          <mxGeometry y="187.8181818181818" width="529" height="30" as="geometry" />
        </mxCell>
        <mxCell id="10" value="+ depositar(valor: Double) : : void" style="text;strokeColor=none;fillColor=none;align=left;verticalAlign=top;spacingLeft=4;spacingRight=4;overflow=hidden;rotatable=0;points=[[0,0.5],[1,0.5]];portConstraint=eastwest;" parent="2" vertex="1">
          <mxGeometry y="217.8181818181818" width="529" height="30" as="geometry" />
        </mxCell>
        <mxCell id="11" value="+ emitirSaldo() : : Double" style="text;strokeColor=none;fillColor=none;align=left;verticalAlign=top;spacingLeft=4;spacingRight=4;overflow=hidden;rotatable=0;points=[[0,0.5],[1,0.5]];portConstraint=eastwest;" parent="2" vertex="1">
          <mxGeometry y="247.8181818181818" width="529" height="30" as="geometry" />
        </mxCell>
        <mxCell id="12" value="+ emitirExtrato() : : List" style="text;strokeColor=none;fillColor=none;align=left;verticalAlign=top;spacingLeft=4;spacingRight=4;overflow=hidden;rotatable=0;points=[[0,0.5],[1,0.5]];portConstraint=eastwest;" parent="2" vertex="1">
          <mxGeometry y="277.8181818181818" width="529" height="30" as="geometry" />
        </mxCell>
        <mxCell id="13" value="+ transferir(destino: ContaCorrente, valor: Double) : : Boolean" style="text;strokeColor=none;fillColor=none;align=left;verticalAlign=top;spacingLeft=4;spacingRight=4;overflow=hidden;rotatable=0;points=[[0,0.5],[1,0.5]];portConstraint=eastwest;" parent="2" vertex="1">
          <mxGeometry y="307.8181818181818" width="529" height="30" as="geometry" />
        </mxCell>
        <mxCell id="14" value="Movimentacao" style="swimlane;fontStyle=1;align=center;verticalAlign=top;childLayout=stackLayout;horizontal=1;startSize=35.55555555555556;horizontalStack=0;resizeParent=1;resizeParentMax=0;resizeLast=0;collapsible=0;marginBottom=0;" parent="1" vertex="1">
          <mxGeometry x="300" y="750" width="341" height="161.55555555555554" as="geometry" />
        </mxCell>
        <mxCell id="15" value="- descricao: String" style="text;strokeColor=none;fillColor=none;align=left;verticalAlign=top;spacingLeft=4;spacingRight=4;overflow=hidden;rotatable=0;points=[[0,0.5],[1,0.5]];portConstraint=eastwest;" parent="14" vertex="1">
          <mxGeometry y="35.55555555555556" width="341" height="36" as="geometry" />
        </mxCell>
        <mxCell id="16" value="- valor: Double" style="text;strokeColor=none;fillColor=none;align=left;verticalAlign=top;spacingLeft=4;spacingRight=4;overflow=hidden;rotatable=0;points=[[0,0.5],[1,0.5]];portConstraint=eastwest;" parent="14" vertex="1">
          <mxGeometry y="71.55555555555556" width="341" height="36" as="geometry" />
        </mxCell>
        <mxCell id="17" value="- tipo: String // &quot;credito&quot; ou &quot;debito&quot;" style="text;strokeColor=none;fillColor=none;align=left;verticalAlign=top;spacingLeft=4;spacingRight=4;overflow=hidden;rotatable=0;points=[[0,0.5],[1,0.5]];portConstraint=eastwest;" parent="14" vertex="1">
          <mxGeometry y="107.55555555555556" width="341" height="36" as="geometry" />
        </mxCell>
        <mxCell id="18" style="line;strokeWidth=1;fillColor=none;align=left;verticalAlign=middle;spacingTop=-1;spacingLeft=3;spacingRight=3;rotatable=0;labelPosition=right;points=[];portConstraint=eastwest;strokeColor=inherit;" parent="14" vertex="1">
          <mxGeometry y="143.55555555555554" width="341" height="18" as="geometry" />
        </mxCell>
        <mxCell id="19" value="Banco" style="swimlane;fontStyle=1;align=center;verticalAlign=top;childLayout=stackLayout;horizontal=1;startSize=31.11111111111111;horizontalStack=0;resizeParent=1;resizeParentMax=0;resizeLast=0;collapsible=0;marginBottom=0;" parent="1" vertex="1">
          <mxGeometry x="220" width="546" height="287.1111111111111" as="geometry" />
        </mxCell>
        <mxCell id="20" value="- contas: List" style="text;strokeColor=none;fillColor=none;align=left;verticalAlign=top;spacingLeft=4;spacingRight=4;overflow=hidden;rotatable=0;points=[[0,0.5],[1,0.5]];portConstraint=eastwest;" parent="19" vertex="1">
          <mxGeometry y="31.11111111111111" width="546" height="31" as="geometry" />
        </mxCell>
        <mxCell id="21" style="line;strokeWidth=1;fillColor=none;align=left;verticalAlign=middle;spacingTop=-1;spacingLeft=3;spacingRight=3;rotatable=0;labelPosition=right;points=[];portConstraint=eastwest;strokeColor=inherit;" parent="19" vertex="1">
          <mxGeometry y="62.111111111111114" width="546" height="8" as="geometry" />
        </mxCell>
        <mxCell id="22" value="+ criarConta(conta: ContaCorrente) : : void" style="text;strokeColor=none;fillColor=none;align=left;verticalAlign=top;spacingLeft=4;spacingRight=4;overflow=hidden;rotatable=0;points=[[0,0.5],[1,0.5]];portConstraint=eastwest;" parent="19" vertex="1">
          <mxGeometry y="70.11111111111111" width="546" height="31" as="geometry" />
        </mxCell>
        <mxCell id="23" value="+ excluirConta(numero: String) : : Boolean" style="text;strokeColor=none;fillColor=none;align=left;verticalAlign=top;spacingLeft=4;spacingRight=4;overflow=hidden;rotatable=0;points=[[0,0.5],[1,0.5]];portConstraint=eastwest;" parent="19" vertex="1">
          <mxGeometry y="101.11111111111111" width="546" height="31" as="geometry" />
        </mxCell>
        <mxCell id="24" value="+ sacar(numero: String, valor: Double) : : Boolean" style="text;strokeColor=none;fillColor=none;align=left;verticalAlign=top;spacingLeft=4;spacingRight=4;overflow=hidden;rotatable=0;points=[[0,0.5],[1,0.5]];portConstraint=eastwest;" parent="19" vertex="1">
          <mxGeometry y="132.11111111111111" width="546" height="31" as="geometry" />
        </mxCell>
        <mxCell id="25" value="+ depositar(numero: String, valor: Double) : : void" style="text;strokeColor=none;fillColor=none;align=left;verticalAlign=top;spacingLeft=4;spacingRight=4;overflow=hidden;rotatable=0;points=[[0,0.5],[1,0.5]];portConstraint=eastwest;" parent="19" vertex="1">
          <mxGeometry y="163.11111111111111" width="546" height="31" as="geometry" />
        </mxCell>
        <mxCell id="26" value="+ emitirSaldo(numero: String) : : Double" style="text;strokeColor=none;fillColor=none;align=left;verticalAlign=top;spacingLeft=4;spacingRight=4;overflow=hidden;rotatable=0;points=[[0,0.5],[1,0.5]];portConstraint=eastwest;" parent="19" vertex="1">
          <mxGeometry y="194.11111111111111" width="546" height="31" as="geometry" />
        </mxCell>
        <mxCell id="27" value="+ emitirExtrato(numero: String) : : List" style="text;strokeColor=none;fillColor=none;align=left;verticalAlign=top;spacingLeft=4;spacingRight=4;overflow=hidden;rotatable=0;points=[[0,0.5],[1,0.5]];portConstraint=eastwest;" parent="19" vertex="1">
          <mxGeometry y="225.11111111111111" width="546" height="31" as="geometry" />
        </mxCell>
        <mxCell id="28" value="+ transferir(origem: String, destino: String, valor: Double) : : Boolean" style="text;strokeColor=none;fillColor=none;align=left;verticalAlign=top;spacingLeft=4;spacingRight=4;overflow=hidden;rotatable=0;points=[[0,0.5],[1,0.5]];portConstraint=eastwest;" parent="19" vertex="1">
          <mxGeometry y="256.1111111111111" width="546" height="31" as="geometry" />
        </mxCell>
        <mxCell id="29" value="" style="curved=1;startArrow=diamondThin;startSize=14;startFill=1;endArrow=none;exitX=0.5;exitY=1;entryX=0.5;entryY=0;" parent="1" source="19" target="2" edge="1">
          <mxGeometry relative="1" as="geometry">
            <Array as="points" />
          </mxGeometry>
        </mxCell>
        <mxCell id="30" value="1" style="edgeLabel;resizable=0;labelBackgroundColor=none;fontSize=12;align=right;verticalAlign=top;" parent="29" vertex="1">
          <mxGeometry x="-1" relative="1" as="geometry" />
        </mxCell>
        <mxCell id="31" value="*" style="edgeLabel;resizable=0;labelBackgroundColor=none;fontSize=12;align=left;verticalAlign=bottom;" parent="29" vertex="1">
          <mxGeometry x="1" relative="1" as="geometry" />
        </mxCell>
        <mxCell id="32" value="" style="curved=1;startArrow=diamondThin;startSize=14;startFill=1;endArrow=none;exitX=0.5;exitY=1;entryX=0.5;entryY=0;" parent="1" source="2" target="14" edge="1">
          <mxGeometry relative="1" as="geometry">
            <Array as="points" />
          </mxGeometry>
        </mxCell>
        <mxCell id="33" value="1" style="edgeLabel;resizable=0;labelBackgroundColor=none;fontSize=12;align=right;verticalAlign=top;" parent="32" vertex="1">
          <mxGeometry x="-1" relative="1" as="geometry" />
        </mxCell>
        <mxCell id="34" value="*" style="edgeLabel;resizable=0;labelBackgroundColor=none;fontSize=12;align=left;verticalAlign=bottom;" parent="32" vertex="1">
          <mxGeometry x="1" relative="1" as="geometry" />
        </mxCell>
      </root>
    </mxGraphModel>
  </diagram>
</mxfile>
